<svg width="45" height="38" viewBox="0 0 45 38" fill="none" xmlns="http://www.w3.org/2000/svg">
<path d="M20.3461 29.0183C20.3461 26.6717 19.7328 24.7037 18.5061 23.1063C17.6368 22.0077 16.4581 21.285 14.9674 20.941C13.5008 20.5997 12.1141 20.5757 10.8608 20.8663C10.4341 18.333 11.1274 15.6503 12.8874 12.8077C14.6474 9.96768 16.9274 7.82901 19.7088 6.39968L15.4928 0.333008C13.3594 1.38901 11.3328 2.72768 9.46608 4.34634C7.57275 5.96501 5.89275 7.82634 4.39942 9.93034C2.90609 12.0343 1.78609 14.4103 1.06609 17.1037C0.346085 19.797 0.146086 22.5437 0.490086 25.3703C0.938086 29.1037 2.14342 32.0904 4.10609 34.3037C6.06609 36.5464 8.51142 37.6664 11.4341 37.6664C14.0074 37.6664 16.1434 36.893 17.8341 35.325C19.5088 33.789 20.3407 31.685 20.3407 29.0103L20.3461 29.0183ZM44.6768 29.0183C44.6768 26.6717 44.0634 24.7037 42.8368 23.1063C41.9674 21.9863 40.7834 21.261 39.2981 20.9277C37.8047 20.597 36.4368 20.581 35.1914 20.869C34.7648 18.3623 35.4314 15.669 37.1968 12.8157C38.9567 9.98901 41.2314 7.85568 44.0127 6.41568L39.8074 0.333008C37.6741 1.38901 35.6607 2.72768 33.7808 4.34634C31.8702 5.989 30.1733 7.865 28.7301 9.93034C27.2474 12.037 26.1434 14.4103 25.4234 17.1037C24.6949 19.7954 24.4983 22.6034 24.8448 25.3703C25.2874 29.1037 26.4874 32.0904 28.4448 34.3037C30.3994 36.5277 32.8368 37.6423 35.7594 37.6423C38.3381 37.6423 40.4741 36.869 42.1648 35.3037C43.8368 33.7677 44.6768 31.6637 44.6768 28.989V29.0183Z" fill="#E9E9E9"/>
</svg>
