<svg width="120" height="54" viewBox="0 0 120 54" fill="none" xmlns="http://www.w3.org/2000/svg">
<path d="M101.822 10.4393C105.276 9.17854 107.214 9.06367 110.667 10.4393V42.6152C107.211 43.7192 105.277 43.7987 101.822 42.6152V10.4393Z" fill="black"/>
<path d="M97.409 33.5874H79.7204C79.8794 35.0213 80.2623 36.0895 80.8693 36.7918C81.7219 37.8014 82.8347 38.3062 84.2076 38.3062C85.0747 38.3062 85.8984 38.0868 86.6788 37.6478C87.1557 37.3698 87.6687 36.8796 88.2179 36.1773C89.2511 34.8558 96.6503 35.1969 96.9104 36.9893C95.5808 39.3305 93.9767 41.0132 92.0981 42.0374C90.2194 43.047 87.5242 43.5518 84.0125 43.5518C80.9632 43.5518 78.5643 43.1202 76.8157 42.2569C75.0671 41.379 73.6147 39.9962 72.4586 38.1087C71.3169 36.2065 70.7461 33.9751 70.7461 31.4145C70.7461 27.7712 71.895 24.8228 74.1928 22.5695C76.505 20.3161 79.6915 19.1895 83.7524 19.1895C87.0473 19.1895 89.6485 19.6943 91.5561 20.7039C93.4637 21.7135 94.9161 23.1767 95.9132 25.0935C96.9104 27.0103 97.409 29.5051 97.409 32.5778V33.5874ZM88.4346 29.3075C88.2612 27.5809 87.7988 26.3445 87.0473 25.5983C86.3103 24.8521 85.3348 24.4789 84.1209 24.4789C82.7191 24.4789 81.5991 25.0423 80.7609 26.1689C80.2262 26.8713 79.8866 27.9175 79.7421 29.3075H88.4346Z" fill="black"/>
<path d="M41.1504 31.4365C41.1504 27.8809 42.3354 24.9545 44.7054 22.6573C47.0755 20.3454 50.2765 19.1895 54.3084 19.1895C58.9184 19.1895 62.4012 20.5429 64.7568 23.2498C66.6499 25.43 67.5965 28.115 67.5965 31.3048C67.5965 34.8896 66.4187 37.8307 64.0631 40.1279C61.722 42.4105 58.4776 43.5518 54.3301 43.5518C50.6305 43.5518 47.6391 42.6007 45.3558 40.6986C42.5522 38.3428 41.1504 35.2554 41.1504 31.4365ZM49.9947 31.4145C49.9947 33.4923 50.4065 35.0287 51.2303 36.0236C52.0684 37.0186 53.1162 37.5161 54.3734 37.5161C55.6452 37.5161 56.6857 37.0259 57.4949 36.0456C58.3187 35.0652 58.7305 33.4923 58.7305 31.3267C58.7305 29.3075 58.3187 27.8077 57.4949 26.8274C56.6712 25.8324 55.6524 25.3349 54.4385 25.3349C53.1523 25.3349 52.0901 25.8397 51.2519 26.8493C50.4137 27.8443 49.9947 29.366 49.9947 31.4145Z" fill="black"/>
<path d="M36.9506 42.3395C32.6274 43.5781 30.2309 43.6662 26.7624 42.3395L9.33398 13.2143C13.45 10.8183 15.6851 10.5705 19.4572 13.2143L36.9506 42.3395ZM9.33398 42.3395V15.9798L17.6797 29.829V42.3395C14.7435 43.5637 12.9595 43.7212 9.33398 42.3395ZM36.9506 13.2143V39.574L28.6049 25.6589V13.2143C32.0408 11.0733 33.8637 11.0398 36.9506 13.2143Z" fill="black"/>
</svg>
